<?xml version="1.0" standalone="no"?>
<!DOCTYPE svg PUBLIC "-//W3C//DTD SVG 20010904//EN"
 "http://www.w3.org/TR/2001/REC-SVG-20010904/DTD/svg10.dtd">
<svg version="1.0" xmlns="http://www.w3.org/2000/svg"
 width="640.000000pt" height="640.000000pt" viewBox="0 0 640.000000 640.000000"
 preserveAspectRatio="xMidYMid meet">
<metadata>
Created by potrace 1.14, written by Peter Selinger 2001-2017
</metadata>
<g transform="translate(0.000000,640.000000) scale(0.100000,-0.100000)"
fill="#000000" stroke="none">
<path d="M2887 5043 c-1 -1 -31 -4 -67 -7 -36 -4 -81 -8 -100 -11 -19 -3 -80
-7 -135 -10 -135 -7 -241 -20 -282 -36 -13 -5 -23 -6 -23 -3 0 2 -8 0 -18 -5
-11 -6 -30 -12 -43 -15 -61 -13 -76 -16 -99 -26 -14 -5 -68 -21 -120 -34 -52
-14 -125 -34 -162 -45 -36 -10 -69 -17 -72 -13 -3 3 -6 1 -6 -5 0 -5 -6 -10
-12 -11 -7 0 -29 -5 -50 -10 -32 -8 -37 -7 -41 9 -8 29 -39 19 -111 -34 -35
-26 -67 -47 -70 -47 -4 0 -49 -20 -101 -45 -73 -34 -110 -60 -170 -118 -75
-73 -76 -75 -56 -89 l22 -15 -28 -18 c-36 -24 -47 -35 -61 -62 -20 -36 -14
-52 31 -80 44 -29 97 -81 97 -97 0 -5 -12 -19 -26 -31 -23 -20 -24 -24 -13
-49 10 -20 10 -29 1 -34 -6 -4 -15 -25 -21 -47 -37 -154 -97 -328 -148 -430
-17 -33 -39 -85 -48 -115 -10 -30 -20 -59 -24 -65 -3 -5 -6 -15 -7 -20 -2 -12
-33 -84 -69 -160 -30 -63 -46 -102 -80 -190 -15 -38 -33 -84 -41 -102 -8 -17
-14 -37 -14 -45 0 -8 -3 -18 -7 -22 -5 -4 -8 -11 -9 -14 0 -4 -4 -16 -9 -27
-4 -11 -18 -48 -31 -83 -22 -58 -57 -149 -89 -232 -7 -19 -21 -53 -31 -75 -10
-22 -19 -44 -20 -50 -1 -5 -26 -71 -54 -145 -85 -222 -120 -361 -125 -488 -2
-49 1 -62 11 -58 11 4 13 -11 8 -79 -6 -81 -6 -85 14 -85 11 0 40 8 64 18 74
30 95 21 77 -33 -4 -14 0 -26 14 -37 11 -10 20 -31 21 -46 1 -16 9 -36 18 -45
9 -10 14 -25 11 -37 -7 -26 16 -26 49 -1 28 22 98 121 101 142 2 8 6 19 9 25
4 5 16 35 28 65 41 107 115 248 132 252 10 3 19 1 19 -4 1 -5 2 -15 3 -21 1
-7 0 -17 -3 -23 -10 -19 -6 -30 17 -49 20 -16 25 -17 36 -5 11 13 49 98 147
334 22 55 90 199 149 320 59 121 115 241 125 268 13 35 26 51 49 62 27 12 100
34 131 39 6 1 15 4 20 8 13 7 70 20 151 32 22 4 46 8 54 11 8 2 26 7 40 9 14
3 44 10 68 16 24 6 47 8 53 5 5 -4 9 -2 9 2 0 5 8 9 18 9 41 2 215 18 302 29
43 5 97 33 122 64 12 15 33 34 46 40 22 12 23 16 16 91 l-7 80 27 10 c15 5 25
14 22 19 -3 5 14 24 39 43 42 33 43 36 30 61 -31 59 -65 78 -175 96 -85 14
-140 30 -140 40 0 4 11 20 24 34 30 32 28 59 -5 67 -13 4 -139 8 -279 9 -140
1 -258 5 -262 9 -4 4 9 43 28 87 37 85 102 250 109 275 7 30 53 185 60 203 4
9 19 20 34 22 14 3 62 17 106 30 120 36 173 48 190 41 8 -3 15 -1 15 4 0 6 8
10 18 10 9 0 62 12 117 25 55 14 111 28 125 31 13 3 56 12 95 20 38 9 81 17
95 19 14 2 54 8 90 14 36 6 81 13 100 15 79 11 117 18 163 31 26 8 47 12 47
10 0 -2 27 10 60 26 40 19 64 38 70 54 5 14 17 25 27 25 25 1 53 24 53 44 0 9
-7 31 -16 48 -36 69 -36 95 -1 89 4 -1 15 12 25 29 9 16 20 30 23 30 3 0 18
11 33 25 15 14 31 25 37 25 32 0 -26 65 -77 86 -18 8 -75 16 -126 19 -51 3
-122 8 -157 10 -35 2 -68 8 -73 13 -11 11 16 42 36 42 8 0 13 14 14 36 l1 35
-90 -3 c-50 -2 -91 -4 -92 -5z"/>
<path d="M5456 5043 c-1 -1 -32 -5 -69 -8 -38 -4 -78 -8 -90 -11 -12 -2 -69
-6 -127 -9 -165 -9 -196 -13 -324 -46 -67 -17 -129 -32 -138 -34 -9 -2 -26 -9
-37 -15 -12 -6 -21 -9 -21 -6 0 3 -25 -4 -55 -14 -30 -10 -55 -17 -55 -15 0 3
-12 0 -27 -6 -16 -6 -36 -12 -46 -14 -10 -2 -55 -15 -100 -28 -129 -39 -128
-39 -125 -14 4 33 -25 24 -107 -32 -38 -26 -106 -63 -150 -81 -84 -37 -147
-79 -205 -139 -64 -65 -65 -68 -39 -92 13 -11 19 -18 13 -15 -6 3 -32 -13 -58
-35 -62 -55 -62 -80 3 -120 26 -17 54 -41 61 -55 8 -13 17 -24 22 -24 16 0 7
-30 -12 -40 -15 -8 -20 -20 -19 -48 1 -20 -3 -50 -9 -67 -6 -16 -21 -66 -32
-110 -12 -44 -24 -87 -27 -95 -3 -8 -7 -19 -9 -25 -11 -37 -59 -156 -74 -185
-28 -52 -45 -94 -84 -200 -18 -52 -50 -131 -70 -175 -42 -92 -47 -104 -71
-165 -10 -25 -21 -54 -26 -65 -5 -11 -38 -99 -75 -195 -79 -211 -94 -248 -177
-460 -64 -162 -135 -363 -143 -404 -18 -93 -22 -130 -22 -193 0 -52 4 -73 13
-73 10 0 10 -10 3 -44 -22 -105 1 -134 76 -98 41 20 86 18 86 -4 0 -7 -4 -15
-9 -18 -15 -10 -6 -40 15 -51 13 -7 19 -20 19 -43 -1 -23 5 -37 18 -44 13 -7
17 -16 13 -33 -11 -43 13 -37 64 15 48 49 84 113 130 231 11 28 39 86 60 128
22 43 40 82 40 88 0 6 6 13 13 15 25 10 34 -3 31 -42 -2 -31 1 -42 17 -50 11
-6 17 -15 14 -21 -4 -5 -1 -9 5 -9 10 0 62 104 63 128 0 6 4 12 9 12 4 0 8 4
8 9 0 23 142 346 239 546 60 121 116 238 125 260 18 42 56 65 136 80 19 4 41
12 48 17 6 6 12 7 12 4 0 -4 8 -2 18 3 10 5 41 12 68 14 27 3 70 10 94 17 25
7 54 14 65 16 11 2 31 6 45 9 94 20 120 24 200 30 165 12 243 23 251 37 3 5 9
9 13 8 14 -2 66 35 66 47 0 8 10 17 23 22 44 17 50 34 34 98 -15 57 -15 58 9
78 13 12 24 25 25 30 0 6 20 26 44 45 24 19 44 40 44 46 1 16 -74 94 -90 95
-8 0 -23 2 -34 5 -19 4 -55 10 -115 19 -36 5 -77 22 -84 34 -4 6 5 20 19 33
29 25 33 64 8 70 -10 2 -137 5 -283 7 -146 1 -268 5 -272 9 -3 4 2 25 12 47
38 83 84 196 90 220 2 9 11 36 36 100 4 11 9 28 10 38 2 9 13 42 23 72 11 30
17 55 15 55 -2 0 2 13 10 28 8 16 23 28 37 29 12 1 54 12 93 24 39 11 71 20
71 19 0 -1 12 3 26 9 15 5 47 12 70 16 24 3 117 24 207 46 90 23 166 38 169
35 4 -3 11 -2 17 4 14 11 57 19 170 35 27 3 70 10 95 14 25 5 53 9 61 9 58 3
193 39 253 69 27 14 52 34 57 47 5 13 20 26 36 30 46 12 55 34 33 78 -10 20
-21 52 -24 71 -5 32 -4 35 24 40 22 5 29 11 25 22 -3 8 -2 15 4 15 6 0 23 13
39 29 16 16 38 31 49 33 17 4 15 7 -14 36 -55 52 -87 63 -202 68 -154 6 -200
11 -216 25 -12 10 -12 14 6 26 11 8 28 15 38 16 16 1 16 5 7 34 l-10 34 -93
-3 c-52 -2 -95 -4 -96 -5z"/>
</g>
</svg>
